<svg xmlns="http://www.w3.org/2000/svg" viewBox="0 0 400 400">
    <path d="M200.6 27c55.2.4 99.7 45.8 99.4 101.4-.3 37.2-20.5 69.6-50.4 86.9-9 26.7-51.2 157.7-51.2 157.7s-44.3-135.3-52.1-160.1c-28.7-16.9-46.6-49.7-46.3-85.8.3-55.7 45.4-100.5 100.6-100.1z" fill-rule="evenodd" clip-rule="evenodd" fill="#ffa400"/>
    <path d="M200.9 66.7h-2.1L186 79.3V68.7h-23.7v33.8l-16.8 17.7v2.7h8.2v57.9h91.1v-57.4h9.5v-3.2l-53.4-53.5zm-24.1 89.4h-7.3v-6.8h7.3v6.8zm0-11.3h-7.3V138h7.3v6.8zm11.1 11.3h-7.3v-6.8h7.3v6.8zm0-11.3h-7.3V138h7.3v6.8zm40.3 31h-24.4v-43.4h24.4v43.4z"/>
</svg>
