<svg id="logo" xmlns="http://www.w3.org/2000/svg" viewBox="0 0 336 110">
    <style>
        .st0{fill:#ffa400}
    </style>
    <path d="M79.7 56.5V12.1h5.1l-.1 40.1h12.5v4.3H79.7zM117.3 38.2c0-7.1-2.6-13.9-9.1-14-6.4 0-10.8 6.4-10.8 16.7 0 9.7 3.9 16 11.6 16 2.5 0 5.3-.6 7-1.5l-.8-3.7c-1.3.7-3 1.2-5.3 1.2-3.6 0-7.5-2-7.5-11.9h14.7c.1-.7.2-1.6.2-2.8zm-14.8-.9c.2-4.3 1.8-9.1 5.2-9.1 2.4 0 4.8 2.8 4.7 9.1h-9.9zM137.6 49.3V35.5c0-7.1-2.7-11.2-9.1-11.3-3.2 0-6.1 1.1-7.4 2.1l1.1 3.6c1.5-1.1 3.3-1.6 5.3-1.6 3.9 0 5.1 2.9 5.1 7.2v1c-7.3 0-13.6 3.5-13.7 11.5 0 5.5 3.2 9.1 7.5 9.1 2.8 0 5-1.4 6.4-3.9h.2l.3 3.4h4.6c-.3-2.1-.3-4.8-.3-7.3zm-5-2.8c0 .6-.1 1.3-.2 1.9-.6 3.1-2.5 4.8-4.7 4.8-1.8 0-3.9-1.5-3.9-5.7 0-6.9 6.1-7.4 8.8-7.4v6.4zM161.9 49l.1-37.9h-5v17h-.1c-1.3-2.7-3.5-3.8-5.9-3.8-4.9 0-9.5 5.3-9.6 16.5 0 10.5 3.8 16.3 9.2 16.3 3.4 0 5.7-2.2 6.7-4.5h.2l.3 3.9h4.3c0-1.8-.2-5.4-.2-7.5zm-5-3.7c0 .8-.1 1.5-.2 2.1-1.1 4.6-3.3 5.5-4.9 5.5-3.7 0-5.4-5.4-5.4-12.1 0-6.3 1.5-12.2 5.7-12.2 2.4 0 4.4 2.8 4.7 6.2.1.7.1 1.4.1 2.1v8.4zM174.4 28.3c-2.7 0-4.1 2-4.1 4.1 0 2.1.8 3.3 3.9 5.5 3.7 2.4 6.6 5.3 6.6 9.7 0 6.4-4.4 9.5-9.6 9.5-2.3 0-4.9-.7-6.2-1.9l1.2-3.8c1.1.7 3.1 1.7 5.1 1.7 2.8 0 4.7-1.8 4.7-4.6 0-2.4-.9-4.1-4.1-6.3-4.1-2.6-6.4-5.4-6.3-9 0-5.2 3.8-8.8 8.7-8.8 2.5 0 4.4.9 5.7 1.7l-1.3 3.8c-1.3-1-2.6-1.6-4.3-1.6z"/>
    <g>
        <path class="st0" d="M205.3 55.6l-6.8-16.8C197 35 195 29.4 194 25.4h-.1c.2 4.5.6 11.3.6 20.3v9.9H187l.1-44.3h7.9l6.8 17.4c1.4 3.4 3.5 9.1 4.7 13h.1c-.3-4.7-.8-12.4-.8-20.5v-9.8h7.6l-.1 44.3-8-.1zM240.5 38.1c0-9.8-4-15.3-10.9-15.3-7.2 0-12.9 6.4-12.9 17.3 0 10.1 4.8 15.9 13.6 15.9 3.2 0 6.6-.6 8.7-1.4l-1.1-6.2c-1.5.5-3.7 1-6.1 1-3.8 0-6.7-1.9-6.8-6.9h15.2c.1-.8.3-2.1.3-4.4zM225 36.5c.1-3.2 1.3-7.4 4-7.4 2.6 0 3.6 3.2 3.6 7.4H225zM265.1 48.3V36.4c0-6.6-1.6-13.4-11.4-13.4-4.5 0-8.2 1.4-10.1 2.4l1.6 5.9c1.9-1.2 4-1.9 6.6-1.9 3.1 0 4.5 1.8 4.5 4.4v.7c-7.3.1-14.7 3.5-14.7 11.9 0 5.7 3.6 9.7 8.5 9.8 2.8 0 5.4-1.2 7.1-3.7h.2l.5 3.2h7.7c-.4-2.2-.5-4.8-.5-7.4zm-8.5-2.7c0 .6-.1 1.1-.2 1.5-.6 1.9-2.1 2.8-3.6 2.8-1.3 0-3.1-1.2-3.1-4.4 0-4.5 4-5.5 6.9-5.5v5.6zM283.3 31.5c-1.8 0-4.2 1.2-5.2 4.5-.3.7-.4 1.9-.4 3.2v16.4h-8.6V33.1c0-3.1-.1-6.6-.3-9.7h7.4l.5 4.7h.2c1.4-3.4 4-5.3 6.3-5.3.9 0 1.4.1 1.8.2v8.5h-1.7zM301.9 22.9c-3.1 0-5.2 1.5-6.7 3.8h-.1V10.1h-8.6v36c0 3-.2 6.7-.3 9.5h7.4l.5-3.8h.2c1.7 3.2 3.6 4.3 6.3 4.3 6 0 10.5-6.2 10.5-17.5-.1-8.5-3-15.7-9.2-15.7zm-3.5 26.3c-1.1 0-2.3-.7-3-3-.2-.5-.3-1.2-.3-2v-9c0-.6.1-1.5.3-2 .4-1.6 1.6-3 2.9-2.9 2.9 0 4.2 3.6 4.1 9.1 0 6.2-1.2 9.8-4 9.8zM329.4 48.4c-1.6 6-3.7 12.3-7.2 16.4-2.7 3.2-6 4.7-7.3 5.1l-2.6-7.4c1.4-.5 3-1.4 4.3-2.6 1.2-1.1 2.1-2.5 2.7-3.9.3-.5.5-.9.5-1.4 0-.4-.1-.8-.2-1.2l-8.9-29.8h9.3l3.1 16.8c.4 1.9.7 3.6.9 5.4h.1c.2-1.6.5-3.5.8-5.3l2.7-16.9h8.5l-6.7 24.8z"/>
    </g>
    <g>
        <path d="M32.2 0c17.7.1 32 14.5 31.8 32.2 0 11.9-6.5 22.2-16.1 27.7C45 68.3 31.5 110 31.5 110S17.3 67 14.8 59.1C5.6 53.7-.1 43.3 0 31.8.1 14.1 14.5-.1 32.2 0z" fill-rule="evenodd" clip-rule="evenodd" fill="#ffa400"/>
        <path d="M32.3 12.6h-.7l-4.1 4v-3.3H20V24l-5.4 5.6v.9h2.6v18.4h29.2V30.7h3v-1L32.3 12.6zm-7.7 28.5h-2.3v-2.2h2.3v2.2zm0-3.6h-2.3v-2.2h2.3v2.2zm3.6 3.6h-2.3v-2.2h2.3v2.2zm0-3.6h-2.3v-2.2h2.3v2.2zm12.9 9.8h-7.8V33.5h7.8v13.8z"/>
    </g>
    <g>
        <path d="M92.6 71.4c0 1.4-.3 2.6-.9 3.7-.6 1.1-1.4 2-2.4 2.6-.7.4-1.5.7-2.3.9-.8.2-2 .3-3.4.3h-3.8v-15h3.8c1.5 0 2.6.1 3.5.3.9.2 1.6.5 2.2.9 1 .6 1.8 1.5 2.4 2.6.6 1 .9 2.3.9 3.7zm-2.1 0c0-1.2-.2-2.2-.6-3-.4-.8-1-1.5-1.8-1.9-.6-.3-1.2-.6-1.9-.7-.7-.1-1.5-.2-2.4-.2h-1.9v11.7h1.9c1 0 1.8-.1 2.5-.2s1.4-.4 2-.8c.8-.5 1.3-1.1 1.7-1.9.3-.8.5-1.8.5-3zM108.4 65.6c.6.7 1.1 1.5 1.4 2.5.3 1 .5 2.1.5 3.3 0 1.2-.2 2.4-.5 3.3-.3 1-.8 1.8-1.4 2.5-.6.7-1.4 1.2-2.2 1.5-.8.3-1.8.5-2.9.5-1.1 0-2-.2-2.9-.5-.9-.4-1.6-.9-2.2-1.5-.6-.7-1.1-1.5-1.4-2.5-.3-1-.5-2.1-.5-3.3 0-1.2.2-2.3.5-3.3s.8-1.8 1.4-2.5c.6-.7 1.3-1.2 2.2-1.5.9-.4 1.8-.5 2.9-.5 1.1 0 2.1.2 2.9.5.8.3 1.6.8 2.2 1.5zm-.2 5.8c0-2-.4-3.5-1.3-4.5-.9-1.1-2.1-1.6-3.6-1.6s-2.7.5-3.6 1.6-1.3 2.6-1.3 4.5c0 2 .4 3.5 1.3 4.6.9 1.1 2.1 1.6 3.6 1.6s2.7-.5 3.6-1.6c.8-1.1 1.3-2.6 1.3-4.6zM128.2 79h-2V66l-4.2 8.9h-1.2l-4.2-8.9v13h-1.9V63.9h2.7l4 8.4 3.9-8.4h2.8V79zM138.8 79h-6v-1.5h2v-12h-2V64h6v1.5h-2v12h2V79zM155 79h-2.5l-7.2-13.5V79h-1.9V63.9h3.1l6.5 12.3V63.9h1.9V79zM172.2 79h-2.1l-1.5-4.2H162l-1.5 4.2h-2l5.5-15.1h2.7l5.5 15.1zm-4.3-6l-2.6-7.4-2.7 7.4h5.3zM185.3 65.6h-5.4V79h-2V65.6h-5.4v-1.8h12.8v1.8zM198.5 79h-10V63.9h10v1.8h-7.9v4.1h7.9v1.8h-7.9v5.6h7.9V79zM221.1 79h-9.6V63.9h2v13.3h7.6V79zM235.4 65.6c.6.7 1.1 1.5 1.4 2.5.3 1 .5 2.1.5 3.3 0 1.2-.2 2.4-.5 3.3-.3 1-.8 1.8-1.4 2.5-.6.7-1.4 1.2-2.2 1.5-.8.3-1.8.5-2.9.5-1.1 0-2-.2-2.9-.5-.9-.4-1.6-.9-2.2-1.5-.6-.7-1.1-1.5-1.4-2.5-.3-1-.5-2.1-.5-3.3 0-1.2.2-2.3.5-3.3s.8-1.8 1.4-2.5c.6-.7 1.3-1.2 2.2-1.5.9-.4 1.8-.5 2.9-.5 1.1 0 2.1.2 2.9.5.9.3 1.6.8 2.2 1.5zm-.2 5.8c0-2-.4-3.5-1.3-4.5-.9-1.1-2.1-1.6-3.6-1.6s-2.7.5-3.6 1.6-1.3 2.6-1.3 4.5c0 2 .4 3.5 1.3 4.6.9 1.1 2.1 1.6 3.6 1.6s2.7-.5 3.6-1.6c.9-1.1 1.3-2.6 1.3-4.6zM253.4 77.9c-.4.2-.7.3-1 .5-.3.1-.7.3-1.2.4-.4.1-.9.2-1.3.3-.5.1-1 .1-1.6.1-1.1 0-2.1-.2-3-.5-.9-.3-1.7-.8-2.3-1.4-.6-.6-1.2-1.5-1.5-2.4-.4-1-.5-2.1-.5-3.5 0-1.2.2-2.4.5-3.3.4-1 .9-1.8 1.5-2.5s1.4-1.2 2.3-1.5c.9-.3 1.9-.5 3-.5.8 0 1.6.1 2.4.3.8.2 1.7.5 2.7 1v2.4h-.2c-.8-.7-1.7-1.2-2.5-1.5s-1.7-.5-2.6-.5c-.8 0-1.5.1-2.1.4-.6.2-1.2.6-1.6 1.2-.5.5-.8 1.1-1.1 1.9-.3.8-.4 1.7-.4 2.7 0 1.1.1 2 .4 2.7.3.8.7 1.4 1.1 1.9.5.5 1 .9 1.7 1.1.6.2 1.3.4 2 .4 1 0 1.9-.2 2.7-.5.8-.3 1.6-.8 2.4-1.5h.1v2.3zM269.4 79h-2.1l-1.5-4.2h-6.5l-1.5 4.2h-2l5.5-15.1h2.7l5.4 15.1zm-4.2-6l-2.6-7.4-2.7 7.4h5.3zM282.5 79H273V63.9h2v13.3h7.6V79zM295.3 79h-9.6V63.9h2v13.3h7.6V79zM307.7 63.9l-5.3 8.5V79h-2v-6.4l-5.3-8.7h2.2l4.1 6.8 4.2-6.8h2.1z"/>
    </g>
</svg>
